<?xml version="1.0" encoding="UTF-8"?>
<svg width="150px" height="50px" viewBox="0 0 150 50" version="1.1" xmlns="http://www.w3.org/2000/svg" xmlns:xlink="http://www.w3.org/1999/xlink">
    <!-- Generator: Sketch 64 (93537) - https://sketch.com -->
    <title>doodle_desktop@1x</title>
    <desc>Created with Sketch.</desc>
    <defs>
        <rect id="path-1" x="0" y="0" width="167.851852" height="44"></rect>
        <circle id="path-3" cx="9.38541074" cy="9.34926832" r="9.33333333"></circle>
        <ellipse id="path-5" cx="6.49652185" cy="10.0900091" rx="6.44444444" ry="9.33333333"></ellipse>
        <ellipse id="path-7" cx="3.75251966" cy="7.06218504" rx="3.7037037" ry="6.96296296"></ellipse>
        <rect id="path-9" x="0" y="0.00100225819" width="14.3703704" height="30.0865049"></rect>
        <polygon id="path-11" points="0 0.0224375756 14.7421129 0.0224375756 14.7421129 9.94655415 0 9.94655415"></polygon>
        <polygon id="path-13" points="0.000211337775 0.0599117293 30.3664204 0.0599117293 30.3664204 14.2677249 0.000211337775 14.2677249"></polygon>
    </defs>
    <g id="doodle_desktop" stroke="none" stroke-width="1" fill="none" fill-rule="evenodd">
        <g id="doodle_full" transform="translate(-8.925926, 4.000000)">
            <g id="Group-2">
                <mask id="mask-2" fill="white">
                    <use xlink:href="#path-1"></use>
                </mask>
                <g id="Rectangle"></g>
                <path d="M24.3122279,25.3608767 L24.2407455,25.3608767 C23.4828049,28.5652961 20.1129191,30.4333442 16.9307031,30.4333442 C11.7565101,30.4333442 9.18518519,26.4140698 9.18518519,21.7643816 C9.18518519,16.9033038 11.9414567,12.8888889 17.1832743,12.8888889 C20.7331143,12.8888889 23.5186596,15.1792745 24.2407455,18.1378457 L24.3122279,18.1378457 L24.3122279,13.3112264 L25.037037,13.3112264 L25.037037,30.8183516 C25.037037,35.74923 22.1405238,38.0740741 17.2892499,38.0740741 C13.5274589,38.0740741 10.3043957,36.4200662 10.195924,32.3658915 L10.9232293,32.3658915 C11.0686904,35.9603987 13.891225,37.3687793 17.2533952,37.3687793 C21.7436261,37.3687793 24.3122279,35.2922131 24.3122279,30.8183516 L24.3122279,25.3608767 L24.3122279,25.3608767 Z M17.1832743,13.5944045 C12.3689897,13.5944045 9.907725,17.3627504 9.907725,21.7643816 C9.907725,26.2375804 12.3689897,29.7302583 16.889856,29.7302583 C21.6698744,29.7302583 24.2779618,26.1308916 24.2779618,21.7643816 C24.3122279,17.6061687 21.854821,13.5944045 17.1832743,13.5944045 L17.1832743,13.5944045 Z" id="Fill-1" fill="#362112" mask="url(#mask-2)"></path>
                <g id="o" mask="url(#mask-2)">
                    <g transform="translate(21.777778, 9.481481)">
                        <g id="Fill-10" transform="translate(4.592593, 3.407407)">
                            <path d="M8.39213515,0 C13.8165523,0 16.7407407,4.47780679 16.7407407,9.33355091 C16.7407407,14.225631 13.8165523,18.6666667 8.35518037,18.6666667 C2.93325709,18.6666667 0,14.225631 0,9.33355091 C0,4.47780679 2.93325709,0 8.39213515,0 L8.39213515,0 Z M8.39213515,17.9717145 C13.3409012,17.9717145 16.0193291,13.8437772 16.0193291,9.33355091 C16.0193291,4.89142733 13.3409012,0.694952132 8.39213515,0.694952132 C3.36424501,0.694952132 0.726626139,4.89142733 0.726626139,9.33355091 C0.726626139,13.8437772 3.36424501,17.9717145 8.39213515,17.9717145 L8.39213515,17.9717145 Z" id="Fill-2" fill="#362112"></path>
                        </g>
                        <g id="Fill-10-Copy" transform="translate(6.074074, 0.000000)">
                            <mask id="mask-4" fill="white">
                                <use xlink:href="#path-3"></use>
                            </mask>
                            <g id="Oval"></g>
                            <path d="M6.91065367,3.40740741 C12.3350708,3.40740741 15.2592593,7.8852142 15.2592593,12.7409583 C15.2592593,17.6330384 12.3350708,22.0740741 6.87369889,22.0740741 C1.45177561,22.0740741 -1.48148148,17.6330384 -1.48148148,12.7409583 C-1.48148148,7.8852142 1.45177561,3.40740741 6.91065367,3.40740741 L6.91065367,3.40740741 Z M6.91065367,21.3791219 C11.8594198,21.3791219 14.5378476,17.2511846 14.5378476,12.7409583 C14.5378476,8.29883474 11.8594198,4.10235954 6.91065367,4.10235954 C1.88276353,4.10235954 -0.754855343,8.29883474 -0.754855343,12.7409583 C-0.754855343,17.2511846 1.88276353,21.3791219 6.91065367,21.3791219 L6.91065367,21.3791219 Z" id="Fill-2" fill="#362112" mask="url(#mask-4)"></path>
                        </g>
                        <g id="Fill-10-Copy-2" transform="translate(0.000000, 3.407407)">
                            <mask id="mask-6" fill="white">
                                <use xlink:href="#path-5"></use>
                            </mask>
                            <g id="Oval"></g>
                            <path d="M12.9847277,0 C18.4091449,0 21.3333333,4.47780679 21.3333333,9.33355091 C21.3333333,14.225631 18.4091449,18.6666667 12.947773,18.6666667 C7.52584969,18.6666667 4.59259259,14.225631 4.59259259,9.33355091 C4.59259259,4.47780679 7.52584969,0 12.9847277,0 L12.9847277,0 Z M12.9847277,17.9717145 C17.9334938,17.9717145 20.6119217,13.8437772 20.6119217,9.33355091 C20.6119217,4.89142733 17.9334938,0.694952132 12.9847277,0.694952132 C7.95683761,0.694952132 5.31921873,4.89142733 5.31921873,9.33355091 C5.31921873,13.8437772 7.95683761,17.9717145 12.9847277,17.9717145 L12.9847277,17.9717145 Z" id="Fill-2" fill="#362112" mask="url(#mask-6)"></path>
                        </g>
                    </g>
                </g>
                <g id="o-copy" mask="url(#mask-2)">
                    <g transform="translate(44.000000, 12.888889)">
                        <g id="Fill-10">
                            <path d="M8.39213515,0 C13.8165523,0 16.7407407,4.47780679 16.7407407,9.33355091 C16.7407407,14.225631 13.8165523,18.6666667 8.35518037,18.6666667 C2.93325709,18.6666667 0,14.225631 0,9.33355091 C0,4.47780679 2.93325709,0 8.39213515,0 L8.39213515,0 Z M8.39213515,17.9717145 C13.3409012,17.9717145 16.0193291,13.8437772 16.0193291,9.33355091 C16.0193291,4.89142733 13.3409012,0.694952132 8.39213515,0.694952132 C3.36424501,0.694952132 0.726626139,4.89142733 0.726626139,9.33355091 C0.726626139,13.8437772 3.36424501,17.9717145 8.39213515,17.9717145 L8.39213515,17.9717145 Z" id="Fill-2" fill="#362112"></path>
                        </g>
                        <g id="Fill-10-Copy">
                            <path d="M8.39213515,0 C13.8165523,0 16.7407407,4.47780679 16.7407407,9.33355091 C16.7407407,14.225631 13.8165523,18.6666667 8.35518037,18.6666667 C2.93325709,18.6666667 0,14.225631 0,9.33355091 C0,4.47780679 2.93325709,0 8.39213515,0 L8.39213515,0 Z M8.39213515,17.9717145 C13.3409012,17.9717145 16.0193291,13.8437772 16.0193291,9.33355091 C16.0193291,4.89142733 13.3409012,0.694952132 8.39213515,0.694952132 C3.36424501,0.694952132 0.726626139,4.89142733 0.726626139,9.33355091 C0.726626139,13.8437772 3.36424501,17.9717145 8.39213515,17.9717145 L8.39213515,17.9717145 Z" id="Fill-2" fill="#362112"></path>
                        </g>
                        <g id="Fill-10-Copy-2">
                            <path d="M8.39213515,0 C13.8165523,0 16.7407407,4.47780679 16.7407407,9.33355091 C16.7407407,14.225631 13.8165523,18.6666667 8.35518037,18.6666667 C2.93325709,18.6666667 0,14.225631 0,9.33355091 C0,4.47780679 2.93325709,0 8.39213515,0 L8.39213515,0 Z M8.39213515,17.9717145 C13.3409012,17.9717145 16.0193291,13.8437772 16.0193291,9.33355091 C16.0193291,4.89142733 13.3409012,0.694952132 8.39213515,0.694952132 C3.36424501,0.694952132 0.726626139,4.89142733 0.726626139,9.33355091 C0.726626139,13.8437772 3.36424501,17.9717145 8.39213515,17.9717145 L8.39213515,17.9717145 Z" id="Fill-2" fill="#362112"></path>
                        </g>
                    </g>
                </g>
                <g id="d" mask="url(#mask-2)">
                    <g transform="translate(61.629630, 4.888889)">
                        <g id="Fill-12" transform="translate(0.000000, 0.592593)">
                            <path d="M15.14151,0 L15.8518519,0 L15.8518519,24.7692535 L15.14151,24.7692535 L15.14151,19.7763331 L15.069253,19.7763331 C14.1490323,22.895168 11.4937543,25.1851852 7.76840567,25.1851852 C2.94408368,25.1851852 0,21.2636369 0,15.8893732 C0,10.8927547 2.73398256,6.52220898 7.76840567,6.52220898 C11.6338217,6.52220898 14.2201776,8.70933089 15.069253,11.9323663 L15.14151,11.9323663 L15.14151,0 L15.14151,0 Z M7.76840567,7.21702372 C2.7677766,7.21702372 0.712565186,11.7600766 0.712565186,15.8893732 C0.712565186,20.4661444 3.05280267,24.4903704 7.76840567,24.4903704 C12.4488806,24.4903704 15.14151,20.5053012 15.14151,15.8893732 C15.14151,10.3728401 12.1987603,7.21702372 7.76840567,7.21702372 L7.76840567,7.21702372 Z" id="Fill-4" fill="#362112"></path>
                        </g>
                        <g id="Fill-12-Copy" transform="translate(0.740741, 20.148148)">
                            <mask id="mask-8" fill="white">
                                <use xlink:href="#path-7"></use>
                            </mask>
                            <g id="Oval"></g>
                            <path d="M14.4007692,-19.5555556 L15.1111111,-19.5555556 L15.1111111,5.21369795 L14.4007692,5.21369795 L14.4007692,0.220777517 L14.3285122,0.220777517 C13.4082915,3.33961249 10.7530135,5.62962963 7.02766492,5.62962963 C2.20334294,5.62962963 -0.740740741,1.70808133 -0.740740741,-3.66618233 C-0.740740741,-8.6628009 1.99324181,-13.0333466 7.02766492,-13.0333466 C10.8930809,-13.0333466 13.4794369,-10.8462247 14.3285122,-7.62318924 L14.4007692,-7.62318924 L14.4007692,-19.5555556 L14.4007692,-19.5555556 Z M7.02766492,-12.3385318 C2.02703586,-12.3385318 -0.0281755549,-7.79547893 -0.0281755549,-3.66618233 C-0.0281755549,0.910588893 2.31206193,4.93481489 7.02766492,4.93481489 C11.7081399,4.93481489 14.4007692,0.949745641 14.4007692,-3.66618233 C14.4007692,-9.18271549 11.4580195,-12.3385318 7.02766492,-12.3385318 L7.02766492,-12.3385318 Z" id="Fill-4" fill="#362112" mask="url(#mask-8)"></path>
                        </g>
                        <g id="Fill-12-Copy-2" transform="translate(2.222222, 0.000000)">
                            <mask id="mask-10" fill="white">
                                <use xlink:href="#path-9"></use>
                            </mask>
                            <g id="Rectangle"></g>
                            <path d="M12.9192877,0.592592593 L13.6296296,0.592592593 L13.6296296,25.3618461 L12.9192877,25.3618461 L12.9192877,20.3689257 L12.8470307,20.3689257 C11.92681,23.4877606 9.27153204,25.7777778 5.54618344,25.7777778 C0.721861457,25.7777778 -2.22222222,21.8562295 -2.22222222,16.4819658 C-2.22222222,11.4853473 0.511760333,7.11480157 5.54618344,7.11480157 C9.41159946,7.11480157 11.9979554,9.30192348 12.8470307,12.5249589 L12.9192877,12.5249589 L12.9192877,0.592592593 L12.9192877,0.592592593 Z M5.54618344,7.80961631 C0.545554376,7.80961631 -1.50965704,12.3526692 -1.50965704,16.4819658 C-1.50965704,21.058737 0.830580451,25.082963 5.54618344,25.082963 C10.2266584,25.082963 12.9192877,21.0978938 12.9192877,16.4819658 C12.9192877,10.9654327 9.97653803,7.80961631 5.54618344,7.80961631 L5.54618344,7.80961631 Z" id="Fill-4" fill="#362112" mask="url(#mask-10)"></path>
                        </g>
                    </g>
                </g>
                <path d="M141.62963,31.0390519 L139.593632,31.0390519 L139.593632,27.6549132 L139.521737,27.6549132 C138.571664,29.9694301 135.687482,31.5555556 133.050962,31.5555556 C127.522541,31.5555556 124.888889,27.1724243 124.888889,22.1271977 C124.888889,17.0813212 127.522541,12.6932068 133.050962,12.6932068 C135.75673,12.6932068 138.393029,14.0405793 139.340676,16.596449 L139.417423,16.596449 L139.417423,6.37037037 L141.62963,6.37037037 L141.62963,31.0390519 L141.62963,31.0390519 Z M133.050962,29.7235276 C137.76075,29.7235276 139.417423,25.8202853 139.417423,22.1271977 C139.417423,18.4260938 137.76075,14.5204684 133.050962,14.5204684 C128.829885,14.5204684 127.106168,18.4260938 127.106168,22.1271977 C127.106168,25.8202853 128.829885,29.7235276 133.050962,29.7235276 L133.050962,29.7235276 Z" id="Fill-8" fill="#362112" mask="url(#mask-2)"></path>
                <path d="M155.629664,18.5623017 C155.518804,15.8955125 153.380438,14.6971941 150.806695,14.6971941 C148.804272,14.6971941 146.451801,15.4519053 146.451801,17.7449838 C146.451801,19.6570618 148.733725,20.3418764 150.272551,20.720304 L153.272266,21.3665255 C155.841306,21.7438811 158.518519,23.1797621 158.518519,26.2558534 C158.518519,30.0896577 154.561825,31.5555556 151.126285,31.5555556 C146.839699,31.5555556 143.912995,29.6411191 143.555556,25.3347627 L145.802094,25.3347627 C145.985741,28.237828 148.234967,29.7425334 151.237145,29.7425334 C153.337662,29.7425334 156.269516,28.8551045 156.269516,26.3932881 C156.269516,24.3437754 154.272021,23.6608905 152.237124,23.1797621 L149.340879,22.5674168 C146.413952,21.8150641 144.195184,20.8553802 144.195184,17.8485422 C144.195184,14.2585182 147.87484,12.8888889 151.126285,12.8888889 C154.803477,12.8888889 157.737795,14.7381457 157.876426,18.5623017 L155.629664,18.5623017" id="Fill-9" fill="#362112" mask="url(#mask-2)"></path>
                <path d="M81.037037,13.1463988 L83.1596051,13.1463988 L83.1596051,17.4614749 L83.2346407,17.4614749 C84.4053805,14.4975029 86.9641649,12.751292 90.3703704,12.8973876 L90.3703704,15.1440819 C86.1949922,14.9277352 83.3440964,17.9243718 83.3440964,21.7423203 L83.3440964,31.5555556 L81.037037,31.5555556 L81.037037,13.1463988" id="Fill-5" fill="#362112" mask="url(#mask-2)"></path>
                <path d="M91.6529755,22.8036929 C91.6842899,25.9520393 93.3383398,29.7425334 97.5035914,29.7425334 C100.67542,29.7425334 102.394906,27.8977791 103.082312,25.2335628 L105.255749,25.2335628 C104.325387,29.2337466 101.981987,31.5555556 97.5035914,31.5555556 C91.8618103,31.5555556 89.4814815,27.2468407 89.4814815,22.2250095 C89.4814815,17.5736729 91.8618103,12.8888889 97.5035914,12.8888889 C103.222903,12.8888889 105.501082,17.8485422 105.323777,22.8036929 L91.6529755,22.8036929 L91.6529755,22.8036929 Z M103.152715,20.9928148 C103.052941,17.7449838 101.017719,14.6971941 97.5035914,14.6971941 C93.9577177,14.6971941 91.9976502,17.7786456 91.6529755,20.9928148 L103.152715,20.9928148 L103.152715,20.9928148 Z" id="Fill-6" fill="#362112" mask="url(#mask-2)"></path>
                <path d="M108.02914,18.8047956 C108.236534,14.6682492 111.213129,12.8888889 115.344545,12.8888889 C118.535777,12.8888889 122.003533,13.8472864 122.003533,18.5623017 L122.003533,27.9340138 C122.003533,28.7562631 122.425343,29.2337466 123.301664,29.2337466 C123.545928,29.2337466 123.81982,29.1636356 124,29.0960975 L124,30.9069756 C123.508839,31.010534 123.158354,31.0444102 122.561192,31.0444102 C120.322436,31.0444102 119.967123,29.8147884 119.967123,27.9653172 L119.905454,27.9653172 C118.360644,30.2560372 116.783354,31.5555556 113.310769,31.5555556 C109.991371,31.5555556 107.259259,29.9545815 107.259259,26.3932881 C107.259259,21.4364221 112.192818,21.2663976 116.956292,20.720304 C118.78004,20.5106144 119.794405,20.2719799 119.794405,18.3249536 C119.794405,15.418029 117.659675,14.6971941 115.063192,14.6971941 C112.333714,14.6971941 110.3074,15.9317472 110.228173,18.8047956 L108.02914,18.8047956 L108.02914,18.8047956 Z M119.794405,21.4001874 L119.725493,21.4001874 C119.446334,21.9139055 118.461817,22.0875749 117.869483,22.1887748 C114.120593,22.8373547 109.465754,22.8036929 109.465754,26.2558534 C109.465754,28.4112829 111.425132,29.7425334 113.491169,29.7425334 C116.852704,29.7425334 119.831494,27.6591446 119.794405,24.2063408 L119.794405,21.4001874 L119.794405,21.4001874 Z" id="Fill-7" fill="#362112" mask="url(#mask-2)"></path>
                <g id="GLYPH" mask="url(#mask-2)">
                    <g transform="translate(28.296296, 19.407407)">
                        <g id="Group-6" transform="translate(7.851852, 7.851852)">
                            <g id="Group-5">
                                <mask id="mask-12" fill="white">
                                    <use xlink:href="#path-11"></use>
                                </mask>
                                <g id="Clip-4"></g>
                            </g>
                        </g>
                        <g id="Group" transform="translate(2.222222, 0.000000)">
                            <path d="M21.5865721,9.03703704 C22.3250642,10.7483669 21.8294934,12.7471635 20.3796912,13.9170929 C19.4975637,17.2520509 17.0451748,19.9570469 13.8093719,21.1553504 C13.1704518,21.392661 12.4594278,21.392661 11.8196493,21.1553504 C8.58499097,19.9570469 6.13202981,17.2517643 5.25018842,13.9168063 C3.80610875,12.7468769 3.31025179,10.7647035 4.03186244,9.05881916 L21.5865721,9.03703704 Z" id="Fill-3" fill="#EAB063"></path>
                            <path d="M12.1452705,10.0682931 C17.8187272,10.1214797 20.8409059,9.82861245 23.75721,8.31040754 C25.0562106,7.64455212 25.5068567,7.13825652 25.480388,6.73867508 C25.3745133,5.83313898 22.7761726,5.40696423 20.4964739,5.16728356 C20.3902599,5.14069025 20.2575773,5.11409695 20.1517026,5.08750364 L18.2958419,1.91778636 C17.6066386,0.745635335 16.3341066,0 14.9821686,0 L10.0773212,0 C8.72538316,0 7.45285115,0.719042031 6.76364781,1.91778636 L4.85484979,5.16728356 C2.57481176,5.48674415 0.0826850716,6.01963305 0.00327907401,6.89857584 C-0.0231895919,7.05847661 0.0562164057,7.64455212 2.3627231,8.57668152 C5.41137046,9.85520576 8.11558582,10.0151065 12.1452705,10.0682931 Z" id="Fill-4" fill="#2E3340"></path>
                            <path d="M6.51851852,12.4442643 C6.51851852,13.9957001 7.80290874,15.2592593 9.38037147,15.2592593 C10.8611203,15.2592593 12.0835989,14.1455834 12.2279371,12.726016 L13.4020588,12.726016 C13.5460307,14.1455834 14.7685094,15.2592593 16.2492582,15.2592593 C17.8267209,15.2592593 19.1111111,13.9957001 19.1111111,12.4442643 C19.1111111,10.8931887 17.8267209,9.62962963 16.2492582,9.62962963 C14.7685094,9.62962963 13.5460307,10.7433055 13.4020588,12.1628729 L12.2279371,12.1628729 C12.0835989,10.7433055 10.8611203,9.62962963 9.38037147,9.62962963 C7.80290874,9.62962963 6.51851852,10.8931887 6.51851852,12.4442643 Z" id="Fill-1" fill="#2E3340"></path>
                        </g>
                        <g id="Group-5" transform="translate(0.000000, 12.444444)">
                            <mask id="mask-14" fill="white">
                                <use xlink:href="#path-13"></use>
                            </mask>
                            <g id="Clip-4"></g>
                            <path d="M4.31784207,7.85261915 L12.4314515,9.87598263 L12.4314515,10.4247747 L4.39321921,8.42073493 C4.3692676,8.23101166 4.34496375,8.04163974 4.31784207,7.85261915 L4.31784207,7.85261915 Z M12.4314515,7.68011152 L12.4314515,8.22890363 L4.02795709,6.13316423 C3.99062075,5.94168427 3.960329,5.74844761 3.92017483,5.55837301 L12.4314515,7.68011152 Z M15.4585129,4.38841288 L15.4585129,14.2677249 L28.2275412,14.2677249 L28.2123953,13.9943828 C27.9538588,9.21230255 28.7537723,4.4172227 30.3666317,0.0599117293 L15.4585129,4.38841288 Z M0.000211337775,0.0599117293 C1.61307079,4.4172227 2.41263203,9.21230255 2.15409549,13.9943828 L2.13894962,14.2677249 L14.907978,14.2677249 L14.907978,4.38841288 L0.000211337775,0.0599117293 Z" id="Fill-3" fill="#2E3340" mask="url(#mask-14)"></path>
                        </g>
                    </g>
                </g>
            </g>
        </g>
    </g>
</svg>